# xmcd CD database file
#
# Track frame offsets:
#	150
#	14442
#	25922
#	42036
#	56851
#	71468
#	86030
#	100553
#	116291
#	132616
#	149801
#	165695
#	183835
#	198801
#
# Disc length: 2939 seconds
#
# Revision: 2
# Processed by: cddbd v1.5.2PL0 Copyright (c) Steve Scherf et al.
# Submitted via: CDex 2.21
#
DISCID=bf0b790e
DTITLE=Miranda Lambert - Wildcard 
DYEAR=2019
DGENRE=Country
TTITLE0=White Trash
TTITLE1=Mess with My Head
TTITLE2=It All Comes Out in the Wash
TTITLE3=Settling Down
TTITLE4=Holy Water
TTITLE5=Way Too Pretty for Prison
TTITLE6=Locomotive
TTITLE7=Bluebird
TTITLE8=How Dare You Love
TTITLE9=Fire Escape
TTITLE10=Pretty Bitchin'
TTITLE11=Tequila Does
TTITLE12=Track Record
TTITLE13=Dark Bars
EXTD=YEAR: 2019
EXTT0=
EXTT1=
EXTT2=
EXTT3=
EXTT4=
EXTT5=
EXTT6=
EXTT7=
EXTT8=
EXTT9=
EXTT10=
EXTT11=
EXTT12=
EXTT13=
PLAYORDER=
